<?xml version="1.0" encoding="UTF-8"?>
<!DOCTYPE svg PUBLIC "-//W3C//DTD SVG 1.1//EN" "http://www.w3.org/Graphics/SVG/1.1/DTD/svg11.dtd">
<!-- Creator: CorelDRAW -->
<svg xmlns="http://www.w3.org/2000/svg" xml:space="preserve" width="23.4074mm" height="32.3264mm" version="1.1" style="shape-rendering:geometricPrecision; text-rendering:geometricPrecision; image-rendering:optimizeQuality; fill-rule:evenodd; clip-rule:evenodd"
viewBox="0 0 148.05 204.47"
 xmlns:xlink="http://www.w3.org/1999/xlink"
 xmlns:xodm="http://www.corel.com/coreldraw/odm/2003">
 <defs>
  <style type="text/css">
   <![CDATA[
    .fil0 {fill:#E62129;fill-rule:nonzero}
   ]]>
  </style>
 </defs>
 <g id="__x0023_Layer_x0020_1">
  <metadata id="CorelCorpID_0Corel-Layer"/>
  <path class="fil0" d="M0.15 0l147.9 0 0 159.5 -12.82 0.02 0 -147.16 -122.11 0 0 180.02 122.11 0 0 -10.39 -112.1 0 0 -103.25 13.4 0 0 91.34 111.52 0 0 34.39 -148.05 0 0.15 -204.47zm88.32 110.58l0 -11.12 14.37 0 0 11.12 0 25.23 0 0 0 0.31 -33.82 0 0 -55.74 55.68 0 0 78.23 -77.57 -0.03 0 -97.12 65.77 0 0 -26.87 -10.06 0 0 17.49 -33.82 0 0 -17.49 -9.88 0 0 17.49 -12 0 0 -29.05 33.74 0 -0.04 19.9 10.24 0 0.04 -19.9 33.58 0 0 48.23 -65.56 0 0 75.17 53.77 -0.34 0 -55.99 -32.54 0 0.13 34.52 11.77 0 0 -14.02 -3.79 0zm-65.34 -87.55l13.4 0 0 46.78 -13.4 0 0 -46.78z"/>
 </g>
</svg>
